<?xml version="1.0" encoding="UTF-8"?>
<svg width="366px" height="31px" viewBox="0 0 366 31" version="1.1" xmlns="http://www.w3.org/2000/svg" xmlns:xlink="http://www.w3.org/1999/xlink">
    <!-- Generator: Sketch 54.1 (76490) - https://sketchapp.com -->
    <title>ON LOGO</title>
    <desc>Created with Sketch.</desc>
    <g id="ON-LOGO" stroke="none" stroke-width="1" fill="none" fill-rule="evenodd">
        <g id="ONI_Logo_Horizontal_RGB" transform="translate(2.000000, 1.000000)" fill-rule="nonzero">
            <g id="Group" fill="#3A64AA">
                <path d="M15.9526624,15.7053125 C15.9526624,16.9740625 14.9584713,17.961875 13.7362548,17.961875 C12.4957962,17.961875 11.5152866,16.9740625 11.5152866,15.7053125 L11.5152866,2.51484375 C11.5152866,1.305 12.4957962,0.3171875 13.7362548,0.3171875 C14.9584713,0.3171875 15.9526624,1.30046875 15.9526624,2.51484375 L15.9526624,15.7053125 Z" id="Path"></path>
                <path d="M13.7362548,28.9909375 C17.1475159,28.9909375 20.5587771,27.6995312 23.1582675,25.1121875 C28.3846115,19.9510937 28.389172,11.5682812 23.1582675,6.3890625 C22.2872102,5.53265625 20.8825732,5.53265625 20.0206369,6.3890625 C19.1541401,7.2590625 19.1541401,8.6546875 20.0206369,9.515625 C23.4820637,12.959375 23.4820637,18.541875 20.0206369,21.985625 C18.2830828,23.7075 16.011949,24.5729687 13.7362548,24.5729687 C11.4696815,24.5729687 9.19398726,23.7075 7.45643312,21.985625 C3.99044586,18.541875 3.99044586,12.959375 7.45643312,9.515625 C8.32749045,8.6546875 8.32749045,7.2590625 7.45643312,6.3890625 C6.58993631,5.53265625 5.18073885,5.53265625 4.31880255,6.3890625 C-0.889299363,11.5682812 -0.889299363,19.9510937 4.31880255,25.1121875 C6.90917197,27.6995312 10.3204331,28.9909375 13.7362548,28.9909375" id="Path"></path>
                <path d="M53.1162548,3.0721875 C51.8849172,3.0721875 50.8998471,4.06 50.8998471,5.274375 L50.8998471,20.2275 L36.9355669,3.85609375 C36.5205605,3.37578125 35.9185732,3.0721875 35.2299363,3.0721875 C34.0031592,3.0721875 33.0089682,4.06 33.0089682,5.274375 L33.0089682,26.226875 C33.0089682,27.4503125 33.9985987,28.438125 35.2299363,28.438125 C36.4612739,28.438125 37.4509045,27.4548437 37.4509045,26.226875 L37.4509045,11.2964063 L51.4197452,27.6632813 C51.8347516,28.148125 52.4458599,28.438125 53.1208153,28.438125 C54.3475924,28.438125 55.3417834,27.4548437 55.3417834,26.226875 L55.3417834,5.27890625 C55.3326624,4.06 54.3384713,3.0721875 53.1162548,3.0721875" id="Path"></path>
            </g>
            <g id="Group" transform="translate(74.792357, 9.062500)" fill="#4E4E4E">
                <path d="M11.223414,6.72890625 L11.223414,6.69265625 C11.223414,4.223125 9.41289172,2.1659375 6.8726879,2.1659375 C4.33248408,2.1659375 2.55844586,4.18234375 2.55844586,6.65640625 L2.55844586,6.69265625 C2.55844586,9.1621875 4.36896815,11.2148437 6.91373248,11.2148437 C9.4493758,11.219375 11.223414,9.20296875 11.223414,6.72890625 M0.20066242,6.72890625 L0.20066242,6.69265625 C0.20066242,3.11296875 2.98257325,0.11328125 6.91373248,0.11328125 C10.8448917,0.11328125 13.585758,3.07671875 13.585758,6.65640625 L13.585758,6.69265625 C13.585758,10.2723438 10.8038471,13.2675 6.8726879,13.2675 C2.94152866,13.2720313 0.20066242,10.3085938 0.20066242,6.72890625" id="Shape"></path>
                <polygon id="Path" points="18.0322548 0.3353125 20.4265223 0.3353125 24.325758 6.34828125 28.2158726 0.3353125 30.6147006 0.3353125 30.6147006 13.0545313 28.3618089 13.0545313 28.3618089 3.933125 24.325758 9.92796875 24.2527898 9.92796875 20.2441019 3.969375 20.2441019 13.0545313 18.0322548 13.0545313"></polygon>
                <rect id="Rectangle" x="35.7680764" y="0.3353125" width="2.24833121" height="12.7192188"></rect>
                <path d="M47.9491975,11.0154688 C50.6353376,11.0154688 52.3911338,9.2165625 52.3911338,6.72890625 L52.3911338,6.69265625 C52.3911338,4.205 50.6353376,2.36984375 47.9491975,2.36984375 L45.4272357,2.36984375 L45.4272357,11.0154688 L47.9491975,11.0154688 Z M43.1743439,0.3353125 L47.9446369,0.3353125 C51.9670064,0.3353125 54.7489172,3.07671875 54.7489172,6.6609375 L54.7489172,6.6971875 C54.7489172,10.276875 51.9670064,13.0590625 47.9446369,13.0590625 L43.1743439,13.0590625 L43.1743439,0.3353125 Z" id="Shape"></path>
                <polygon id="Path" points="61.8815541 8.0384375 56.8011465 0.3353125 59.4508025 0.3353125 63.0353631 5.96765625 66.6518471 0.3353125 69.2330955 0.3353125 64.1481274 7.9840625 64.1481274 13.0545313 61.8815541 13.0545313"></polygon>
                <path d="M78.4225223,8.0021875 L76.2106752,2.91359375 L74.0170701,8.0021875 L78.4225223,8.0021875 Z M75.2028025,0.2446875 L77.2915159,0.2446875 L82.9237452,13.0545312 L80.5477197,13.0545312 L79.2479745,9.98234375 L73.1961783,9.98234375 L71.8827516,13.0545312 L69.5751338,13.0545312 L75.2028025,0.2446875 Z" id="Shape"></path>
                <path d="M92.2408662,6.63828125 C93.8507261,6.63828125 94.8722803,5.80453125 94.8722803,4.513125 L94.8722803,4.476875 C94.8722803,3.11296875 93.8826497,2.36984375 92.2180637,2.36984375 L88.9436178,2.36984375 L88.9436178,6.63828125 L92.2408662,6.63828125 L92.2408662,6.63828125 Z M86.6998471,0.3353125 L92.4050446,0.3353125 C94.0149045,0.3353125 95.2736051,0.81109375 96.0990573,1.60859375 C96.7740127,2.29734375 97.1616561,3.23984375 97.1616561,4.35 L97.1616561,4.38625 C97.1616561,6.470625 95.8983949,7.72578125 94.1061146,8.2378125 L97.5584204,13.0545313 L94.9087643,13.0545313 L91.7665732,8.6184375 L91.7255287,8.6184375 L88.9481783,8.6184375 L88.9481783,13.0545313 L86.6998471,13.0545313 L86.6998471,0.3353125 L86.6998471,0.3353125 Z" id="Shape"></path>
                <polygon id="Path" points="107.869732 0.3353125 109.958446 0.3353125 116.812892 9.13046875 116.812892 0.3353125 119.024739 0.3353125 119.024739 13.0545313 117.141248 13.0545313 110.08614 4.005625 110.08614 13.0545313 107.869732 13.0545313"></polygon>
                <polygon id="Path" points="123.758548 0.3353125 133.248968 0.3353125 133.248968 2.33359375 126.006879 2.33359375 126.006879 5.64140625 132.423516 5.64140625 132.423516 7.6396875 126.006879 7.6396875 126.006879 11.05625 133.340178 11.05625 133.340178 13.0545313 123.758548 13.0545313"></polygon>
                <polygon id="Path" points="140.915185 2.40609375 136.851771 2.40609375 136.851771 0.3353125 147.240611 0.3353125 147.240611 2.40609375 143.181758 2.40609375 143.181758 13.0545313 140.915185 13.0545313"></polygon>
                <polygon id="Path" points="150.163898 0.3353125 152.590089 0.3353125 155.650191 9.76484375 158.792382 0.2990625 160.694115 0.2990625 163.840866 9.76484375 166.891847 0.3353125 169.254191 0.3353125 164.789452 13.1451563 162.855796 13.1451563 159.704484 4.005625 156.562293 13.1451563 154.624076 13.1451563"></polygon>
                <path d="M182.689452,6.72890625 L182.689452,6.69265625 C182.689452,4.223125 180.87893,2.1659375 178.338726,2.1659375 C175.798522,2.1659375 174.024484,4.18234375 174.024484,6.65640625 L174.024484,6.69265625 C174.024484,9.1621875 175.835006,11.2148437 178.37521,11.2148437 C180.915414,11.219375 182.689452,9.20296875 182.689452,6.72890625 M171.66214,6.72890625 L171.66214,6.69265625 C171.66214,3.11296875 174.444051,0.11328125 178.37065,0.11328125 C182.301809,0.11328125 185.047236,3.07671875 185.047236,6.65640625 L185.047236,6.69265625 C185.047236,10.2723438 182.265325,13.2675 178.338726,13.2675 C174.403006,13.2720313 171.66214,10.3085938 171.66214,6.72890625" id="Shape"></path>
                <path d="M194.66535,6.63828125 C196.27521,6.63828125 197.301325,5.80453125 197.301325,4.513125 L197.301325,4.476875 C197.301325,3.11296875 196.311694,2.36984375 194.651669,2.36984375 L191.377223,2.36984375 L191.377223,6.63828125 L194.66535,6.63828125 L194.66535,6.63828125 Z M189.128892,0.3353125 L194.834089,0.3353125 C196.443949,0.3353125 197.70721,0.81109375 198.528102,1.60859375 C199.207618,2.29734375 199.58614,3.23984375 199.58614,4.35 L199.58614,4.38625 C199.58614,6.470625 198.327439,7.72578125 196.535159,8.2378125 L199.992025,13.0545313 L197.337809,13.0545313 L194.191057,8.6184375 L194.154573,8.6184375 L191.372662,8.6184375 L191.372662,13.0545313 L189.124331,13.0545313 L189.124331,0.3353125 L189.128892,0.3353125 Z" id="Shape"></path>
                <polygon id="Path" points="204.461325 0.3353125 206.709656 0.3353125 206.709656 6.72890625 212.802497 0.3353125 215.561605 0.3353125 210.23949 5.80453125 215.798752 13.0545313 213.071567 13.0545313 208.702599 7.3315625 206.709656 9.36609375 206.709656 13.0545313 204.461325 13.0545313"></polygon>
                <g transform="translate(226.201274, 0.000000)">
                    <polygon id="Path" points="2.58124841 0.3715625 2.58124841 13.05 0.355719745 13.05 0.355719745 0.3715625"></polygon>
                    <polygon id="Path" points="15.8204076 0.3715625 18.0413758 0.3715625 18.0413758 13.05 16.1670064 13.05 9.14382166 4.02828125 9.14382166 13.05 6.91829299 13.05 6.91829299 0.3715625 8.99332484 0.3715625 15.8204076 9.13953125"></polygon>
                    <path d="M33.7386497,9.20296875 C33.410293,9.98234375 32.945121,10.6575 32.3431338,11.2239062 C31.7411465,11.7948438 31.0251465,12.2389062 30.1905732,12.5651562 C29.3605605,12.8914062 28.4438981,13.0545312 27.4451465,13.0545312 L22.688535,13.0545312 L22.688535,0.3715625 L27.4451465,0.3715625 C28.4438981,0.3715625 29.356,0.53015625 30.1905732,0.851875 C31.0251465,1.17359375 31.7411465,1.61765625 32.3431338,2.1840625 C32.945121,2.755 33.410293,3.425625 33.7386497,4.1959375 C34.0670064,4.97078125 34.2311847,5.80453125 34.2311847,6.6971875 C34.2311847,7.5853125 34.0670064,8.42359375 33.7386497,9.20296875 Z M31.5587261,4.98890625 C31.3443822,4.46328125 31.047949,4.00109375 30.6648662,3.6159375 C30.2772229,3.22625 29.812051,2.9271875 29.2647898,2.70515625 C28.7175287,2.48765625 28.1064204,2.37890625 27.4360255,2.37890625 L24.9140637,2.37890625 L24.9140637,11.038125 L27.4360255,11.038125 C28.1064204,11.038125 28.7175287,10.929375 29.2647898,10.7209375 C29.812051,10.5079687 30.2772229,10.2134375 30.6648662,9.82828125 C31.047949,9.443125 31.3443822,8.99 31.5587261,8.464375 C31.7730701,7.93421875 31.8779618,7.35875 31.8779618,6.72890625 C31.8825223,6.0990625 31.7730701,5.5190625 31.5587261,4.98890625 Z" id="Shape"></path>
                    <polygon id="Path" points="40.2145732 0.3715625 40.2145732 13.05 37.9890446 13.05 37.9890446 0.3715625"></polygon>
                    <path d="M56.7646624,13.05 L54.397758,13.05 L53.1025732,9.986875 L47.0690191,9.986875 L45.7555924,13.05 L43.4570955,13.05 L49.0710828,0.27640625 L51.1461146,0.27640625 L56.7646624,13.05 Z M50.0789554,2.94078125 L47.8899108,8.01125 L52.2816815,8.01125 L50.0789554,2.94078125 Z" id="Shape"></path>
                </g>
            </g>
        </g>
    </g>
</svg>